<svg xmlns="http://www.w3.org/2000/svg" xmlns:xlink="http://www.w3.org/1999/xlink" width="416" height="176" version="1.1" viewBox="0 0 416 176"><title>TNT</title><desc>Created with Sketch.</desc><g id="Icon" fill="none" fill-rule="evenodd" stroke="none" stroke-width="1"><g id="big-icon" transform="translate(-238.000000, -58.000000)"><g id="TNT" transform="translate(238.000000, 58.000000)"><g id="T" transform="translate(240.000000, 0.000000)"><rect id="Rectangle" width="56" height="56" x="60" y="120" fill="#222333"/><rect id="Rectangle" width="56" height="56" x="60" y="60" fill="#222333"/><rect id="Rectangle" width="56" height="56" x="60" y="0" fill="#222333"/><rect id="Rectangle" width="56" height="56" x="0" y="0" fill="#222333"/><rect id="Rectangle" width="56" height="56" x="120" y="0" fill="#222333"/><polygon id="Rectangle" fill="#6ABFAD" points="0 0 56 56 0 56"/></g><g id="N" fill="#6ABFAD" transform="translate(120.000000, 60.000000)"><rect id="Rectangle" width="56" height="56" x="0" y="0"/><rect id="Rectangle" width="56" height="56" x="0" y="60"/><polygon id="Rectangle" points="60 60 116 60 116 116"/><polygon id="Rectangle" points="60 0 116 56 60 56"/><rect id="Rectangle" width="56" height="56" x="120" y="0"/><rect id="Rectangle" width="56" height="56" x="120" y="60"/></g><g id="T" fill="#222333"><rect id="Rectangle" width="56" height="56" x="60" y="120"/><rect id="Rectangle" width="56" height="56" x="60" y="60"/><rect id="Rectangle" width="56" height="56" x="60" y="0"/><rect id="Rectangle" width="56" height="56" x="0" y="0"/><rect id="Rectangle" width="56" height="56" x="120" y="0"/></g><polygon id="Rectangle" fill="#6ABFAD" points="120 0 176 56 120 56"/></g></g></g></svg>