<svg xmlns="http://www.w3.org/2000/svg" width="3.92cm" height="3.92cm" preserveAspectRatio="none" version="1.1" viewBox="0 0 37 37"><g id="QRcode"><rect width="37" height="37" x="0" y="0" fill="#fff"/><g id="Pattern" transform="translate(2,2)"><rect width="1" height="1" x="0" y="0" fill="#000"/><rect width="1" height="1" x="1" y="0" fill="#000"/><rect width="1" height="1" x="2" y="0" fill="#000"/><rect width="1" height="1" x="3" y="0" fill="#000"/><rect width="1" height="1" x="4" y="0" fill="#000"/><rect width="1" height="1" x="5" y="0" fill="#000"/><rect width="1" height="1" x="6" y="0" fill="#000"/><rect width="1" height="1" x="8" y="0" fill="#000"/><rect width="1" height="1" x="9" y="0" fill="#000"/><rect width="1" height="1" x="12" y="0" fill="#000"/><rect width="1" height="1" x="18" y="0" fill="#000"/><rect width="1" height="1" x="20" y="0" fill="#000"/><rect width="1" height="1" x="22" y="0" fill="#000"/><rect width="1" height="1" x="23" y="0" fill="#000"/><rect width="1" height="1" x="24" y="0" fill="#000"/><rect width="1" height="1" x="26" y="0" fill="#000"/><rect width="1" height="1" x="27" y="0" fill="#000"/><rect width="1" height="1" x="28" y="0" fill="#000"/><rect width="1" height="1" x="29" y="0" fill="#000"/><rect width="1" height="1" x="30" y="0" fill="#000"/><rect width="1" height="1" x="31" y="0" fill="#000"/><rect width="1" height="1" x="32" y="0" fill="#000"/><rect width="1" height="1" x="0" y="1" fill="#000"/><rect width="1" height="1" x="6" y="1" fill="#000"/><rect width="1" height="1" x="10" y="1" fill="#000"/><rect width="1" height="1" x="11" y="1" fill="#000"/><rect width="1" height="1" x="12" y="1" fill="#000"/><rect width="1" height="1" x="13" y="1" fill="#000"/><rect width="1" height="1" x="14" y="1" fill="#000"/><rect width="1" height="1" x="15" y="1" fill="#000"/><rect width="1" height="1" x="17" y="1" fill="#000"/><rect width="1" height="1" x="18" y="1" fill="#000"/><rect width="1" height="1" x="19" y="1" fill="#000"/><rect width="1" height="1" x="21" y="1" fill="#000"/><rect width="1" height="1" x="23" y="1" fill="#000"/><rect width="1" height="1" x="26" y="1" fill="#000"/><rect width="1" height="1" x="32" y="1" fill="#000"/><rect width="1" height="1" x="0" y="2" fill="#000"/><rect width="1" height="1" x="2" y="2" fill="#000"/><rect width="1" height="1" x="3" y="2" fill="#000"/><rect width="1" height="1" x="4" y="2" fill="#000"/><rect width="1" height="1" x="6" y="2" fill="#000"/><rect width="1" height="1" x="9" y="2" fill="#000"/><rect width="1" height="1" x="14" y="2" fill="#000"/><rect width="1" height="1" x="16" y="2" fill="#000"/><rect width="1" height="1" x="17" y="2" fill="#000"/><rect width="1" height="1" x="23" y="2" fill="#000"/><rect width="1" height="1" x="24" y="2" fill="#000"/><rect width="1" height="1" x="26" y="2" fill="#000"/><rect width="1" height="1" x="28" y="2" fill="#000"/><rect width="1" height="1" x="29" y="2" fill="#000"/><rect width="1" height="1" x="30" y="2" fill="#000"/><rect width="1" height="1" x="32" y="2" fill="#000"/><rect width="1" height="1" x="0" y="3" fill="#000"/><rect width="1" height="1" x="2" y="3" fill="#000"/><rect width="1" height="1" x="3" y="3" fill="#000"/><rect width="1" height="1" x="4" y="3" fill="#000"/><rect width="1" height="1" x="6" y="3" fill="#000"/><rect width="1" height="1" x="8" y="3" fill="#000"/><rect width="1" height="1" x="9" y="3" fill="#000"/><rect width="1" height="1" x="10" y="3" fill="#000"/><rect width="1" height="1" x="11" y="3" fill="#000"/><rect width="1" height="1" x="13" y="3" fill="#000"/><rect width="1" height="1" x="15" y="3" fill="#000"/><rect width="1" height="1" x="17" y="3" fill="#000"/><rect width="1" height="1" x="19" y="3" fill="#000"/><rect width="1" height="1" x="20" y="3" fill="#000"/><rect width="1" height="1" x="22" y="3" fill="#000"/><rect width="1" height="1" x="24" y="3" fill="#000"/><rect width="1" height="1" x="26" y="3" fill="#000"/><rect width="1" height="1" x="28" y="3" fill="#000"/><rect width="1" height="1" x="29" y="3" fill="#000"/><rect width="1" height="1" x="30" y="3" fill="#000"/><rect width="1" height="1" x="32" y="3" fill="#000"/><rect width="1" height="1" x="0" y="4" fill="#000"/><rect width="1" height="1" x="2" y="4" fill="#000"/><rect width="1" height="1" x="3" y="4" fill="#000"/><rect width="1" height="1" x="4" y="4" fill="#000"/><rect width="1" height="1" x="6" y="4" fill="#000"/><rect width="1" height="1" x="12" y="4" fill="#000"/><rect width="1" height="1" x="13" y="4" fill="#000"/><rect width="1" height="1" x="15" y="4" fill="#000"/><rect width="1" height="1" x="19" y="4" fill="#000"/><rect width="1" height="1" x="21" y="4" fill="#000"/><rect width="1" height="1" x="22" y="4" fill="#000"/><rect width="1" height="1" x="24" y="4" fill="#000"/><rect width="1" height="1" x="26" y="4" fill="#000"/><rect width="1" height="1" x="28" y="4" fill="#000"/><rect width="1" height="1" x="29" y="4" fill="#000"/><rect width="1" height="1" x="30" y="4" fill="#000"/><rect width="1" height="1" x="32" y="4" fill="#000"/><rect width="1" height="1" x="0" y="5" fill="#000"/><rect width="1" height="1" x="6" y="5" fill="#000"/><rect width="1" height="1" x="10" y="5" fill="#000"/><rect width="1" height="1" x="11" y="5" fill="#000"/><rect width="1" height="1" x="14" y="5" fill="#000"/><rect width="1" height="1" x="15" y="5" fill="#000"/><rect width="1" height="1" x="17" y="5" fill="#000"/><rect width="1" height="1" x="19" y="5" fill="#000"/><rect width="1" height="1" x="20" y="5" fill="#000"/><rect width="1" height="1" x="22" y="5" fill="#000"/><rect width="1" height="1" x="23" y="5" fill="#000"/><rect width="1" height="1" x="24" y="5" fill="#000"/><rect width="1" height="1" x="26" y="5" fill="#000"/><rect width="1" height="1" x="32" y="5" fill="#000"/><rect width="1" height="1" x="0" y="6" fill="#000"/><rect width="1" height="1" x="1" y="6" fill="#000"/><rect width="1" height="1" x="2" y="6" fill="#000"/><rect width="1" height="1" x="3" y="6" fill="#000"/><rect width="1" height="1" x="4" y="6" fill="#000"/><rect width="1" height="1" x="5" y="6" fill="#000"/><rect width="1" height="1" x="6" y="6" fill="#000"/><rect width="1" height="1" x="8" y="6" fill="#000"/><rect width="1" height="1" x="10" y="6" fill="#000"/><rect width="1" height="1" x="12" y="6" fill="#000"/><rect width="1" height="1" x="14" y="6" fill="#000"/><rect width="1" height="1" x="16" y="6" fill="#000"/><rect width="1" height="1" x="18" y="6" fill="#000"/><rect width="1" height="1" x="20" y="6" fill="#000"/><rect width="1" height="1" x="22" y="6" fill="#000"/><rect width="1" height="1" x="24" y="6" fill="#000"/><rect width="1" height="1" x="26" y="6" fill="#000"/><rect width="1" height="1" x="27" y="6" fill="#000"/><rect width="1" height="1" x="28" y="6" fill="#000"/><rect width="1" height="1" x="29" y="6" fill="#000"/><rect width="1" height="1" x="30" y="6" fill="#000"/><rect width="1" height="1" x="31" y="6" fill="#000"/><rect width="1" height="1" x="32" y="6" fill="#000"/><rect width="1" height="1" x="9" y="7" fill="#000"/><rect width="1" height="1" x="10" y="7" fill="#000"/><rect width="1" height="1" x="11" y="7" fill="#000"/><rect width="1" height="1" x="16" y="7" fill="#000"/><rect width="1" height="1" x="18" y="7" fill="#000"/><rect width="1" height="1" x="21" y="7" fill="#000"/><rect width="1" height="1" x="23" y="7" fill="#000"/><rect width="1" height="1" x="2" y="8" fill="#000"/><rect width="1" height="1" x="4" y="8" fill="#000"/><rect width="1" height="1" x="5" y="8" fill="#000"/><rect width="1" height="1" x="6" y="8" fill="#000"/><rect width="1" height="1" x="8" y="8" fill="#000"/><rect width="1" height="1" x="9" y="8" fill="#000"/><rect width="1" height="1" x="10" y="8" fill="#000"/><rect width="1" height="1" x="13" y="8" fill="#000"/><rect width="1" height="1" x="15" y="8" fill="#000"/><rect width="1" height="1" x="16" y="8" fill="#000"/><rect width="1" height="1" x="17" y="8" fill="#000"/><rect width="1" height="1" x="19" y="8" fill="#000"/><rect width="1" height="1" x="20" y="8" fill="#000"/><rect width="1" height="1" x="21" y="8" fill="#000"/><rect width="1" height="1" x="24" y="8" fill="#000"/><rect width="1" height="1" x="25" y="8" fill="#000"/><rect width="1" height="1" x="29" y="8" fill="#000"/><rect width="1" height="1" x="32" y="8" fill="#000"/><rect width="1" height="1" x="0" y="9" fill="#000"/><rect width="1" height="1" x="3" y="9" fill="#000"/><rect width="1" height="1" x="4" y="9" fill="#000"/><rect width="1" height="1" x="7" y="9" fill="#000"/><rect width="1" height="1" x="9" y="9" fill="#000"/><rect width="1" height="1" x="10" y="9" fill="#000"/><rect width="1" height="1" x="11" y="9" fill="#000"/><rect width="1" height="1" x="13" y="9" fill="#000"/><rect width="1" height="1" x="14" y="9" fill="#000"/><rect width="1" height="1" x="17" y="9" fill="#000"/><rect width="1" height="1" x="18" y="9" fill="#000"/><rect width="1" height="1" x="19" y="9" fill="#000"/><rect width="1" height="1" x="22" y="9" fill="#000"/><rect width="1" height="1" x="24" y="9" fill="#000"/><rect width="1" height="1" x="26" y="9" fill="#000"/><rect width="1" height="1" x="30" y="9" fill="#000"/><rect width="1" height="1" x="31" y="9" fill="#000"/><rect width="1" height="1" x="32" y="9" fill="#000"/><rect width="1" height="1" x="2" y="10" fill="#000"/><rect width="1" height="1" x="3" y="10" fill="#000"/><rect width="1" height="1" x="4" y="10" fill="#000"/><rect width="1" height="1" x="6" y="10" fill="#000"/><rect width="1" height="1" x="7" y="10" fill="#000"/><rect width="1" height="1" x="9" y="10" fill="#000"/><rect width="1" height="1" x="10" y="10" fill="#000"/><rect width="1" height="1" x="12" y="10" fill="#000"/><rect width="1" height="1" x="13" y="10" fill="#000"/><rect width="1" height="1" x="14" y="10" fill="#000"/><rect width="1" height="1" x="21" y="10" fill="#000"/><rect width="1" height="1" x="24" y="10" fill="#000"/><rect width="1" height="1" x="28" y="10" fill="#000"/><rect width="1" height="1" x="32" y="10" fill="#000"/><rect width="1" height="1" x="3" y="11" fill="#000"/><rect width="1" height="1" x="5" y="11" fill="#000"/><rect width="1" height="1" x="7" y="11" fill="#000"/><rect width="1" height="1" x="8" y="11" fill="#000"/><rect width="1" height="1" x="10" y="11" fill="#000"/><rect width="1" height="1" x="11" y="11" fill="#000"/><rect width="1" height="1" x="17" y="11" fill="#000"/><rect width="1" height="1" x="18" y="11" fill="#000"/><rect width="1" height="1" x="19" y="11" fill="#000"/><rect width="1" height="1" x="23" y="11" fill="#000"/><rect width="1" height="1" x="24" y="11" fill="#000"/><rect width="1" height="1" x="31" y="11" fill="#000"/><rect width="1" height="1" x="32" y="11" fill="#000"/><rect width="1" height="1" x="0" y="12" fill="#000"/><rect width="1" height="1" x="4" y="12" fill="#000"/><rect width="1" height="1" x="6" y="12" fill="#000"/><rect width="1" height="1" x="9" y="12" fill="#000"/><rect width="1" height="1" x="10" y="12" fill="#000"/><rect width="1" height="1" x="12" y="12" fill="#000"/><rect width="1" height="1" x="13" y="12" fill="#000"/><rect width="1" height="1" x="14" y="12" fill="#000"/><rect width="1" height="1" x="18" y="12" fill="#000"/><rect width="1" height="1" x="19" y="12" fill="#000"/><rect width="1" height="1" x="20" y="12" fill="#000"/><rect width="1" height="1" x="24" y="12" fill="#000"/><rect width="1" height="1" x="25" y="12" fill="#000"/><rect width="1" height="1" x="26" y="12" fill="#000"/><rect width="1" height="1" x="27" y="12" fill="#000"/><rect width="1" height="1" x="32" y="12" fill="#000"/><rect width="1" height="1" x="0" y="13" fill="#000"/><rect width="1" height="1" x="4" y="13" fill="#000"/><rect width="1" height="1" x="12" y="13" fill="#000"/><rect width="1" height="1" x="14" y="13" fill="#000"/><rect width="1" height="1" x="16" y="13" fill="#000"/><rect width="1" height="1" x="19" y="13" fill="#000"/><rect width="1" height="1" x="24" y="13" fill="#000"/><rect width="1" height="1" x="25" y="13" fill="#000"/><rect width="1" height="1" x="26" y="13" fill="#000"/><rect width="1" height="1" x="27" y="13" fill="#000"/><rect width="1" height="1" x="29" y="13" fill="#000"/><rect width="1" height="1" x="31" y="13" fill="#000"/><rect width="1" height="1" x="32" y="13" fill="#000"/><rect width="1" height="1" x="0" y="14" fill="#000"/><rect width="1" height="1" x="4" y="14" fill="#000"/><rect width="1" height="1" x="6" y="14" fill="#000"/><rect width="1" height="1" x="7" y="14" fill="#000"/><rect width="1" height="1" x="10" y="14" fill="#000"/><rect width="1" height="1" x="12" y="14" fill="#000"/><rect width="1" height="1" x="15" y="14" fill="#000"/><rect width="1" height="1" x="20" y="14" fill="#000"/><rect width="1" height="1" x="21" y="14" fill="#000"/><rect width="1" height="1" x="24" y="14" fill="#000"/><rect width="1" height="1" x="25" y="14" fill="#000"/><rect width="1" height="1" x="26" y="14" fill="#000"/><rect width="1" height="1" x="31" y="14" fill="#000"/><rect width="1" height="1" x="32" y="14" fill="#000"/><rect width="1" height="1" x="0" y="15" fill="#000"/><rect width="1" height="1" x="2" y="15" fill="#000"/><rect width="1" height="1" x="3" y="15" fill="#000"/><rect width="1" height="1" x="4" y="15" fill="#000"/><rect width="1" height="1" x="5" y="15" fill="#000"/><rect width="1" height="1" x="7" y="15" fill="#000"/><rect width="1" height="1" x="8" y="15" fill="#000"/><rect width="1" height="1" x="10" y="15" fill="#000"/><rect width="1" height="1" x="13" y="15" fill="#000"/><rect width="1" height="1" x="14" y="15" fill="#000"/><rect width="1" height="1" x="17" y="15" fill="#000"/><rect width="1" height="1" x="18" y="15" fill="#000"/><rect width="1" height="1" x="19" y="15" fill="#000"/><rect width="1" height="1" x="20" y="15" fill="#000"/><rect width="1" height="1" x="21" y="15" fill="#000"/><rect width="1" height="1" x="22" y="15" fill="#000"/><rect width="1" height="1" x="24" y="15" fill="#000"/><rect width="1" height="1" x="25" y="15" fill="#000"/><rect width="1" height="1" x="26" y="15" fill="#000"/><rect width="1" height="1" x="27" y="15" fill="#000"/><rect width="1" height="1" x="29" y="15" fill="#000"/><rect width="1" height="1" x="31" y="15" fill="#000"/><rect width="1" height="1" x="32" y="15" fill="#000"/><rect width="1" height="1" x="6" y="16" fill="#000"/><rect width="1" height="1" x="8" y="16" fill="#000"/><rect width="1" height="1" x="9" y="16" fill="#000"/><rect width="1" height="1" x="12" y="16" fill="#000"/><rect width="1" height="1" x="13" y="16" fill="#000"/><rect width="1" height="1" x="14" y="16" fill="#000"/><rect width="1" height="1" x="18" y="16" fill="#000"/><rect width="1" height="1" x="21" y="16" fill="#000"/><rect width="1" height="1" x="22" y="16" fill="#000"/><rect width="1" height="1" x="26" y="16" fill="#000"/><rect width="1" height="1" x="27" y="16" fill="#000"/><rect width="1" height="1" x="29" y="16" fill="#000"/><rect width="1" height="1" x="31" y="16" fill="#000"/><rect width="1" height="1" x="0" y="17" fill="#000"/><rect width="1" height="1" x="1" y="17" fill="#000"/><rect width="1" height="1" x="2" y="17" fill="#000"/><rect width="1" height="1" x="4" y="17" fill="#000"/><rect width="1" height="1" x="7" y="17" fill="#000"/><rect width="1" height="1" x="9" y="17" fill="#000"/><rect width="1" height="1" x="10" y="17" fill="#000"/><rect width="1" height="1" x="15" y="17" fill="#000"/><rect width="1" height="1" x="17" y="17" fill="#000"/><rect width="1" height="1" x="19" y="17" fill="#000"/><rect width="1" height="1" x="20" y="17" fill="#000"/><rect width="1" height="1" x="25" y="17" fill="#000"/><rect width="1" height="1" x="26" y="17" fill="#000"/><rect width="1" height="1" x="29" y="17" fill="#000"/><rect width="1" height="1" x="30" y="17" fill="#000"/><rect width="1" height="1" x="32" y="17" fill="#000"/><rect width="1" height="1" x="2" y="18" fill="#000"/><rect width="1" height="1" x="3" y="18" fill="#000"/><rect width="1" height="1" x="5" y="18" fill="#000"/><rect width="1" height="1" x="6" y="18" fill="#000"/><rect width="1" height="1" x="8" y="18" fill="#000"/><rect width="1" height="1" x="11" y="18" fill="#000"/><rect width="1" height="1" x="12" y="18" fill="#000"/><rect width="1" height="1" x="15" y="18" fill="#000"/><rect width="1" height="1" x="16" y="18" fill="#000"/><rect width="1" height="1" x="17" y="18" fill="#000"/><rect width="1" height="1" x="20" y="18" fill="#000"/><rect width="1" height="1" x="22" y="18" fill="#000"/><rect width="1" height="1" x="25" y="18" fill="#000"/><rect width="1" height="1" x="26" y="18" fill="#000"/><rect width="1" height="1" x="27" y="18" fill="#000"/><rect width="1" height="1" x="28" y="18" fill="#000"/><rect width="1" height="1" x="30" y="18" fill="#000"/><rect width="1" height="1" x="32" y="18" fill="#000"/><rect width="1" height="1" x="0" y="19" fill="#000"/><rect width="1" height="1" x="1" y="19" fill="#000"/><rect width="1" height="1" x="2" y="19" fill="#000"/><rect width="1" height="1" x="3" y="19" fill="#000"/><rect width="1" height="1" x="4" y="19" fill="#000"/><rect width="1" height="1" x="8" y="19" fill="#000"/><rect width="1" height="1" x="10" y="19" fill="#000"/><rect width="1" height="1" x="15" y="19" fill="#000"/><rect width="1" height="1" x="17" y="19" fill="#000"/><rect width="1" height="1" x="18" y="19" fill="#000"/><rect width="1" height="1" x="21" y="19" fill="#000"/><rect width="1" height="1" x="22" y="19" fill="#000"/><rect width="1" height="1" x="0" y="20" fill="#000"/><rect width="1" height="1" x="1" y="20" fill="#000"/><rect width="1" height="1" x="2" y="20" fill="#000"/><rect width="1" height="1" x="4" y="20" fill="#000"/><rect width="1" height="1" x="5" y="20" fill="#000"/><rect width="1" height="1" x="6" y="20" fill="#000"/><rect width="1" height="1" x="8" y="20" fill="#000"/><rect width="1" height="1" x="10" y="20" fill="#000"/><rect width="1" height="1" x="11" y="20" fill="#000"/><rect width="1" height="1" x="13" y="20" fill="#000"/><rect width="1" height="1" x="15" y="20" fill="#000"/><rect width="1" height="1" x="16" y="20" fill="#000"/><rect width="1" height="1" x="18" y="20" fill="#000"/><rect width="1" height="1" x="20" y="20" fill="#000"/><rect width="1" height="1" x="21" y="20" fill="#000"/><rect width="1" height="1" x="24" y="20" fill="#000"/><rect width="1" height="1" x="26" y="20" fill="#000"/><rect width="1" height="1" x="27" y="20" fill="#000"/><rect width="1" height="1" x="29" y="20" fill="#000"/><rect width="1" height="1" x="31" y="20" fill="#000"/><rect width="1" height="1" x="4" y="21" fill="#000"/><rect width="1" height="1" x="5" y="21" fill="#000"/><rect width="1" height="1" x="8" y="21" fill="#000"/><rect width="1" height="1" x="12" y="21" fill="#000"/><rect width="1" height="1" x="16" y="21" fill="#000"/><rect width="1" height="1" x="17" y="21" fill="#000"/><rect width="1" height="1" x="19" y="21" fill="#000"/><rect width="1" height="1" x="21" y="21" fill="#000"/><rect width="1" height="1" x="23" y="21" fill="#000"/><rect width="1" height="1" x="24" y="21" fill="#000"/><rect width="1" height="1" x="25" y="21" fill="#000"/><rect width="1" height="1" x="30" y="21" fill="#000"/><rect width="1" height="1" x="31" y="21" fill="#000"/><rect width="1" height="1" x="32" y="21" fill="#000"/><rect width="1" height="1" x="0" y="22" fill="#000"/><rect width="1" height="1" x="2" y="22" fill="#000"/><rect width="1" height="1" x="3" y="22" fill="#000"/><rect width="1" height="1" x="5" y="22" fill="#000"/><rect width="1" height="1" x="6" y="22" fill="#000"/><rect width="1" height="1" x="8" y="22" fill="#000"/><rect width="1" height="1" x="9" y="22" fill="#000"/><rect width="1" height="1" x="10" y="22" fill="#000"/><rect width="1" height="1" x="12" y="22" fill="#000"/><rect width="1" height="1" x="13" y="22" fill="#000"/><rect width="1" height="1" x="15" y="22" fill="#000"/><rect width="1" height="1" x="17" y="22" fill="#000"/><rect width="1" height="1" x="18" y="22" fill="#000"/><rect width="1" height="1" x="23" y="22" fill="#000"/><rect width="1" height="1" x="24" y="22" fill="#000"/><rect width="1" height="1" x="26" y="22" fill="#000"/><rect width="1" height="1" x="27" y="22" fill="#000"/><rect width="1" height="1" x="32" y="22" fill="#000"/><rect width="1" height="1" x="1" y="23" fill="#000"/><rect width="1" height="1" x="2" y="23" fill="#000"/><rect width="1" height="1" x="3" y="23" fill="#000"/><rect width="1" height="1" x="5" y="23" fill="#000"/><rect width="1" height="1" x="7" y="23" fill="#000"/><rect width="1" height="1" x="11" y="23" fill="#000"/><rect width="1" height="1" x="12" y="23" fill="#000"/><rect width="1" height="1" x="16" y="23" fill="#000"/><rect width="1" height="1" x="19" y="23" fill="#000"/><rect width="1" height="1" x="20" y="23" fill="#000"/><rect width="1" height="1" x="21" y="23" fill="#000"/><rect width="1" height="1" x="24" y="23" fill="#000"/><rect width="1" height="1" x="25" y="23" fill="#000"/><rect width="1" height="1" x="27" y="23" fill="#000"/><rect width="1" height="1" x="31" y="23" fill="#000"/><rect width="1" height="1" x="32" y="23" fill="#000"/><rect width="1" height="1" x="0" y="24" fill="#000"/><rect width="1" height="1" x="3" y="24" fill="#000"/><rect width="1" height="1" x="4" y="24" fill="#000"/><rect width="1" height="1" x="5" y="24" fill="#000"/><rect width="1" height="1" x="6" y="24" fill="#000"/><rect width="1" height="1" x="7" y="24" fill="#000"/><rect width="1" height="1" x="9" y="24" fill="#000"/><rect width="1" height="1" x="15" y="24" fill="#000"/><rect width="1" height="1" x="16" y="24" fill="#000"/><rect width="1" height="1" x="17" y="24" fill="#000"/><rect width="1" height="1" x="18" y="24" fill="#000"/><rect width="1" height="1" x="21" y="24" fill="#000"/><rect width="1" height="1" x="22" y="24" fill="#000"/><rect width="1" height="1" x="23" y="24" fill="#000"/><rect width="1" height="1" x="24" y="24" fill="#000"/><rect width="1" height="1" x="25" y="24" fill="#000"/><rect width="1" height="1" x="26" y="24" fill="#000"/><rect width="1" height="1" x="27" y="24" fill="#000"/><rect width="1" height="1" x="28" y="24" fill="#000"/><rect width="1" height="1" x="29" y="24" fill="#000"/><rect width="1" height="1" x="31" y="24" fill="#000"/><rect width="1" height="1" x="8" y="25" fill="#000"/><rect width="1" height="1" x="9" y="25" fill="#000"/><rect width="1" height="1" x="11" y="25" fill="#000"/><rect width="1" height="1" x="14" y="25" fill="#000"/><rect width="1" height="1" x="16" y="25" fill="#000"/><rect width="1" height="1" x="17" y="25" fill="#000"/><rect width="1" height="1" x="18" y="25" fill="#000"/><rect width="1" height="1" x="21" y="25" fill="#000"/><rect width="1" height="1" x="24" y="25" fill="#000"/><rect width="1" height="1" x="28" y="25" fill="#000"/><rect width="1" height="1" x="32" y="25" fill="#000"/><rect width="1" height="1" x="0" y="26" fill="#000"/><rect width="1" height="1" x="1" y="26" fill="#000"/><rect width="1" height="1" x="2" y="26" fill="#000"/><rect width="1" height="1" x="3" y="26" fill="#000"/><rect width="1" height="1" x="4" y="26" fill="#000"/><rect width="1" height="1" x="5" y="26" fill="#000"/><rect width="1" height="1" x="6" y="26" fill="#000"/><rect width="1" height="1" x="11" y="26" fill="#000"/><rect width="1" height="1" x="12" y="26" fill="#000"/><rect width="1" height="1" x="13" y="26" fill="#000"/><rect width="1" height="1" x="15" y="26" fill="#000"/><rect width="1" height="1" x="16" y="26" fill="#000"/><rect width="1" height="1" x="17" y="26" fill="#000"/><rect width="1" height="1" x="19" y="26" fill="#000"/><rect width="1" height="1" x="20" y="26" fill="#000"/><rect width="1" height="1" x="22" y="26" fill="#000"/><rect width="1" height="1" x="23" y="26" fill="#000"/><rect width="1" height="1" x="24" y="26" fill="#000"/><rect width="1" height="1" x="26" y="26" fill="#000"/><rect width="1" height="1" x="28" y="26" fill="#000"/><rect width="1" height="1" x="30" y="26" fill="#000"/><rect width="1" height="1" x="31" y="26" fill="#000"/><rect width="1" height="1" x="32" y="26" fill="#000"/><rect width="1" height="1" x="0" y="27" fill="#000"/><rect width="1" height="1" x="6" y="27" fill="#000"/><rect width="1" height="1" x="8" y="27" fill="#000"/><rect width="1" height="1" x="10" y="27" fill="#000"/><rect width="1" height="1" x="11" y="27" fill="#000"/><rect width="1" height="1" x="14" y="27" fill="#000"/><rect width="1" height="1" x="18" y="27" fill="#000"/><rect width="1" height="1" x="19" y="27" fill="#000"/><rect width="1" height="1" x="20" y="27" fill="#000"/><rect width="1" height="1" x="21" y="27" fill="#000"/><rect width="1" height="1" x="22" y="27" fill="#000"/><rect width="1" height="1" x="24" y="27" fill="#000"/><rect width="1" height="1" x="28" y="27" fill="#000"/><rect width="1" height="1" x="32" y="27" fill="#000"/><rect width="1" height="1" x="0" y="28" fill="#000"/><rect width="1" height="1" x="2" y="28" fill="#000"/><rect width="1" height="1" x="3" y="28" fill="#000"/><rect width="1" height="1" x="4" y="28" fill="#000"/><rect width="1" height="1" x="6" y="28" fill="#000"/><rect width="1" height="1" x="8" y="28" fill="#000"/><rect width="1" height="1" x="9" y="28" fill="#000"/><rect width="1" height="1" x="10" y="28" fill="#000"/><rect width="1" height="1" x="11" y="28" fill="#000"/><rect width="1" height="1" x="13" y="28" fill="#000"/><rect width="1" height="1" x="15" y="28" fill="#000"/><rect width="1" height="1" x="16" y="28" fill="#000"/><rect width="1" height="1" x="17" y="28" fill="#000"/><rect width="1" height="1" x="18" y="28" fill="#000"/><rect width="1" height="1" x="22" y="28" fill="#000"/><rect width="1" height="1" x="24" y="28" fill="#000"/><rect width="1" height="1" x="25" y="28" fill="#000"/><rect width="1" height="1" x="26" y="28" fill="#000"/><rect width="1" height="1" x="27" y="28" fill="#000"/><rect width="1" height="1" x="28" y="28" fill="#000"/><rect width="1" height="1" x="31" y="28" fill="#000"/><rect width="1" height="1" x="0" y="29" fill="#000"/><rect width="1" height="1" x="2" y="29" fill="#000"/><rect width="1" height="1" x="3" y="29" fill="#000"/><rect width="1" height="1" x="4" y="29" fill="#000"/><rect width="1" height="1" x="6" y="29" fill="#000"/><rect width="1" height="1" x="9" y="29" fill="#000"/><rect width="1" height="1" x="10" y="29" fill="#000"/><rect width="1" height="1" x="14" y="29" fill="#000"/><rect width="1" height="1" x="15" y="29" fill="#000"/><rect width="1" height="1" x="16" y="29" fill="#000"/><rect width="1" height="1" x="18" y="29" fill="#000"/><rect width="1" height="1" x="19" y="29" fill="#000"/><rect width="1" height="1" x="20" y="29" fill="#000"/><rect width="1" height="1" x="22" y="29" fill="#000"/><rect width="1" height="1" x="24" y="29" fill="#000"/><rect width="1" height="1" x="28" y="29" fill="#000"/><rect width="1" height="1" x="29" y="29" fill="#000"/><rect width="1" height="1" x="0" y="30" fill="#000"/><rect width="1" height="1" x="2" y="30" fill="#000"/><rect width="1" height="1" x="3" y="30" fill="#000"/><rect width="1" height="1" x="4" y="30" fill="#000"/><rect width="1" height="1" x="6" y="30" fill="#000"/><rect width="1" height="1" x="8" y="30" fill="#000"/><rect width="1" height="1" x="9" y="30" fill="#000"/><rect width="1" height="1" x="13" y="30" fill="#000"/><rect width="1" height="1" x="17" y="30" fill="#000"/><rect width="1" height="1" x="19" y="30" fill="#000"/><rect width="1" height="1" x="20" y="30" fill="#000"/><rect width="1" height="1" x="22" y="30" fill="#000"/><rect width="1" height="1" x="23" y="30" fill="#000"/><rect width="1" height="1" x="25" y="30" fill="#000"/><rect width="1" height="1" x="27" y="30" fill="#000"/><rect width="1" height="1" x="28" y="30" fill="#000"/><rect width="1" height="1" x="30" y="30" fill="#000"/><rect width="1" height="1" x="32" y="30" fill="#000"/><rect width="1" height="1" x="0" y="31" fill="#000"/><rect width="1" height="1" x="6" y="31" fill="#000"/><rect width="1" height="1" x="10" y="31" fill="#000"/><rect width="1" height="1" x="11" y="31" fill="#000"/><rect width="1" height="1" x="12" y="31" fill="#000"/><rect width="1" height="1" x="13" y="31" fill="#000"/><rect width="1" height="1" x="16" y="31" fill="#000"/><rect width="1" height="1" x="18" y="31" fill="#000"/><rect width="1" height="1" x="19" y="31" fill="#000"/><rect width="1" height="1" x="20" y="31" fill="#000"/><rect width="1" height="1" x="21" y="31" fill="#000"/><rect width="1" height="1" x="24" y="31" fill="#000"/><rect width="1" height="1" x="26" y="31" fill="#000"/><rect width="1" height="1" x="27" y="31" fill="#000"/><rect width="1" height="1" x="29" y="31" fill="#000"/><rect width="1" height="1" x="31" y="31" fill="#000"/><rect width="1" height="1" x="0" y="32" fill="#000"/><rect width="1" height="1" x="1" y="32" fill="#000"/><rect width="1" height="1" x="2" y="32" fill="#000"/><rect width="1" height="1" x="3" y="32" fill="#000"/><rect width="1" height="1" x="4" y="32" fill="#000"/><rect width="1" height="1" x="5" y="32" fill="#000"/><rect width="1" height="1" x="6" y="32" fill="#000"/><rect width="1" height="1" x="9" y="32" fill="#000"/><rect width="1" height="1" x="10" y="32" fill="#000"/><rect width="1" height="1" x="11" y="32" fill="#000"/><rect width="1" height="1" x="12" y="32" fill="#000"/><rect width="1" height="1" x="13" y="32" fill="#000"/><rect width="1" height="1" x="14" y="32" fill="#000"/><rect width="1" height="1" x="17" y="32" fill="#000"/><rect width="1" height="1" x="20" y="32" fill="#000"/><rect width="1" height="1" x="22" y="32" fill="#000"/><rect width="1" height="1" x="23" y="32" fill="#000"/><rect width="1" height="1" x="24" y="32" fill="#000"/><rect width="1" height="1" x="26" y="32" fill="#000"/><rect width="1" height="1" x="27" y="32" fill="#000"/><rect width="1" height="1" x="28" y="32" fill="#000"/><rect width="1" height="1" x="29" y="32" fill="#000"/><rect width="1" height="1" x="31" y="32" fill="#000"/><rect width="1" height="1" x="32" y="32" fill="#000"/></g></g></svg>